<svg width="160" height="41" viewBox="0 0 160 41" fill="none" xmlns="http://www.w3.org/2000/svg">
<g clip-path="url(#clip0_8124_92022)">
<path d="M34.9356 19.6843L34.2819 19.0306C33.8452 18.594 33.137 18.594 32.7003 19.0306L17.8896 33.8413C17.4528 34.2781 17.4528 34.9862 17.8896 35.423L18.5433 36.0766C18.98 36.5134 19.6882 36.5134 20.1249 36.0766L34.9356 21.266C35.3724 20.8292 35.3724 20.1212 34.9356 19.6843Z" fill="#1575BB"/>
<path d="M11.2078 28.7458C10.6423 28.1803 10.8358 27.2213 11.5764 26.9193L32.6189 18.3406C33.0357 18.1707 33.5138 18.2671 33.8319 18.5854L34.5203 19.2737C35.0889 19.8424 34.8895 20.8075 34.1419 21.1041L12.9358 29.5192C12.521 29.6838 12.048 29.5861 11.7324 29.2704L11.2078 28.7458Z" fill="#1575BB"/>
<path d="M20.7764 5.52809L20.1227 4.87445C19.6859 4.43768 18.9778 4.43768 18.541 4.87445L3.73041 19.685C3.29364 20.1218 3.29364 20.8299 3.73041 21.2668L4.38405 21.9204C4.82081 22.3571 5.52895 22.3571 5.96572 21.9204L20.7764 7.10977C21.2131 6.67299 21.2131 5.96487 20.7764 5.52809Z" fill="#1575BB"/>
<path d="M18.7035 5.66717C19 4.91964 19.9652 4.72017 20.5339 5.28886L21.2222 5.9771C21.5403 6.29535 21.6369 6.77338 21.467 7.19015L12.8882 28.2326C12.5863 28.9732 11.6272 29.1668 11.0617 28.6012L10.5371 28.0767C10.2215 27.7611 10.1238 27.2881 10.2884 26.8734L18.7035 5.66717Z" fill="#1575BB"/>
<path d="M23.9491 22.4732L17.3347 15.8588C16.8979 15.4221 16.1898 15.4221 15.753 15.8588L15.3676 16.2442C14.9309 16.6811 14.9309 17.3891 15.3676 17.8259L21.9821 24.4403C22.4189 24.8771 23.127 24.8771 23.5637 24.4403L23.9491 24.0549C24.386 23.6182 24.386 22.9101 23.9491 22.4732Z" fill="#14528C"/>
<path d="M25.7821 12.7453C26.0788 11.9977 27.0438 11.7983 27.6125 12.367L28.1973 12.9518C28.514 13.2685 28.6112 13.7435 28.4445 14.1591L19.962 35.2978C19.6633 36.0426 18.7006 36.2395 18.1333 35.6722L17.6157 35.1547C17.3002 34.8392 17.2024 34.3662 17.3669 33.9515L25.7821 12.7453Z" fill="#14528C"/>
<path d="M5.85735 22.447C5.44253 22.6116 4.96956 22.5138 4.654 22.1983L4.13651 21.6808C3.56913 21.1133 3.76615 20.1508 4.51082 19.8519L25.6497 11.3695C26.0652 11.2028 26.5404 11.3001 26.857 11.6167L27.5269 12.2867C28.0554 12.8152 27.8701 13.7118 27.1756 13.9874L5.85735 22.447Z" fill="#14528C"/>
<path d="M46.3863 31.6695H42.8369V8.86428H47.588L54.9103 27.4215L62.2325 8.86428H66.9836V31.6695H63.4343V14.7333L56.7269 31.6695H53.0937L46.3863 14.7333V31.6695ZM85.0617 22.5586V24.6267H73.2957C73.4914 27.4774 75.3359 28.9027 77.432 28.9027C79.2486 28.9027 80.8416 28.0922 81.5123 26.4154L84.7822 27.4215C83.804 30.4957 80.8695 32.0887 77.432 32.0887C73.2957 32.0887 69.7743 29.4058 69.7743 24.1516V22.4748C69.7743 17.2486 73.2678 14.5656 77.404 14.5656C81.5962 14.5656 85.0617 17.2486 85.0617 22.5586ZM73.3237 21.6643H81.5123C81.5123 19.3726 79.7237 17.7237 77.404 17.7237C75.3639 17.7237 73.6311 19.0372 73.3237 21.6643ZM99.7491 17.0529V8.86428H103.354V31.6695H100.001L99.833 29.5176C98.5474 31.1944 96.6469 32.0887 94.5509 32.0887C91.1133 32.0887 87.7875 29.1822 87.7875 24.1516V22.4748C87.7875 17.5001 91.1133 14.5656 94.5509 14.5656C96.591 14.5656 98.4635 15.432 99.7491 17.0529ZM95.5849 28.8189C97.8766 28.8189 99.7491 27.2817 99.7491 24.0678V22.5866C99.7491 19.3726 97.8766 17.8355 95.5849 17.8355C93.2653 17.8355 91.3928 19.3726 91.3928 22.5866V24.0678C91.3928 27.2817 93.2653 28.8189 95.5849 28.8189ZM107.929 12.1621C106.755 12.1621 105.805 11.2398 105.805 10.0381C105.805 8.86428 106.755 7.91406 107.929 7.91406C109.103 7.91406 110.053 8.86428 110.053 10.0381C110.053 11.2398 109.103 12.1621 107.929 12.1621ZM109.746 31.6695H106.14V14.9848H109.746V31.6695ZM119.864 14.5656C123.748 14.5656 126.711 16.9411 126.711 21.0215V31.6695H123.413L123.245 29.5455C122.351 31.1385 120.73 32.0887 118.606 32.0887H117.544C114.526 32.0887 112.234 29.8809 112.234 26.7228C112.234 23.7604 114.386 21.5804 118.438 21.5804H123.162V21.1612C123.162 19.2608 122.016 17.8355 119.612 17.8355C117.963 17.8355 116.789 18.59 116.063 19.9036L112.849 18.5342C114.106 16.2424 116.706 14.5656 119.864 14.5656ZM118.299 28.7909H119.333C121.177 28.7909 122.91 27.7569 123.162 25.9403V24.6547H118.55C116.734 24.6547 115.783 25.4652 115.783 26.7228C115.783 28.0084 116.789 28.7909 118.299 28.7909ZM137.194 14.5656C137.921 14.5656 138.787 14.6774 139.346 14.9289L138.479 18.1708C137.865 17.9473 137.138 17.8355 136.551 17.8355C134.874 17.8355 133.197 19.0372 133.197 21.5525V31.6695H129.592V14.9848H132.946L133.114 17.2206C133.924 15.5997 135.265 14.5656 137.194 14.5656ZM156.66 31.6695H152.384L147.074 24.5149L145.397 26.3036V31.6695H141.792V8.86428H145.397V21.5525L151.546 14.9848H155.989L149.254 22.1953L156.66 31.6695Z" fill="#14528C"/>
</g>
<defs>
<clipPath id="clip0_8124_92022">
<rect width="153.432" height="32" fill="white" transform="translate(3.28369 4.53125)"/>
</clipPath>
</defs>
</svg>
